# Blender v2.90.1 OBJ File: ''
# www.blender.org
o Cone_Cone.001
v -0.000000 -1.010101 -1.000000
v 0.000000 0.000000 1.000000
v -1.010101 0.000000 -1.000000
v -0.000000 1.010101 -1.000000
v 1.010101 0.000000 -1.000000
vt 0.250000 0.490000
vt 0.250000 0.250000
vt 0.490000 0.250000
vt 0.250000 0.010000
vt 0.750000 0.490000
vt 0.990000 0.250000
vt 0.750000 0.010000
vt 0.510000 0.250000
vt 0.010000 0.250000
vn -0.6659 -0.6659 0.3363
vn -0.6659 0.6659 0.3363
vn -0.0000 0.0000 -1.0000
vn 0.6659 0.6659 0.3363
vn 0.6659 -0.6659 0.3363
usemtl Default_OBJ
s 1
f 1/1/1 2/2/1 3/3/1
f 3/3/2 2/2/2 4/4/2
f 1/5/3 3/6/3 4/7/3 5/8/3
f 4/4/4 2/2/4 5/9/4
f 5/9/5 2/2/5 1/1/5
